<svg width="48" height="30" viewBox="0 0 48 30" fill="none" xmlns="http://www.w3.org/2000/svg">
<path d="M39.7 17.6C40.9 17.2 41.9 16.7 42.8 16C44.7 14.4 45.7 12.1 45.7 9.1C45.7 6.1 44.7 4.2 42.8 2.5C40.8 0.8 38.1 0 34.6 0H11.4C7.8 0 5.1 0.699998 3.4 2.1C1.7 3.5 0.799999 5.4 0.799999 8C0.799999 9.7 1.3 11.1 2.3 12.3C3.3 13.5 4.8 14.3 6.8 14.6C4.5 14.9 2.8 15.7 1.7 17C0.600001 18.3 0 19.8 0 21.6C0 24.1 0.900001 26.1 2.7 27.5C4.5 28.9 7.2 29.6 10.7 29.6H20.4H25.7H28V18.8H32.6L38.9 29.6H47.4L39.7 17.7V17.6ZM18.3 24.1H12C10.6 24.1 9.6 23.8 8.9 23.3C8.2 22.7 7.9 21.9 7.9 20.8C7.9 19.7 8.2 19 8.9 18.4C9.6 17.8 10.6 17.6 12 17.6H18.3V24.1ZM18.3 12.1H12.7C10 12.1 8.6 11 8.6 8.9C8.6 6.8 10 5.7 12.7 5.7H18.3V12.1ZM36.8 12.4C36.1 13 34.9 13.3 33.4 13.3H27.9V5.8H33.4C34.9 5.8 36 6.1 36.8 6.7C37.5 7.3 37.9 8.2 37.9 9.5C37.9 10.8 37.5 11.8 36.8 12.4Z" fill="white"/>
</svg>
