<svg width="133" height="133" viewBox="0 0 133 133" fill="none" xmlns="http://www.w3.org/2000/svg">
<path d="M66.5 123.8C34.9 123.8 9.2 98.1 9.2 66.5C9.2 34.9 34.9 9.2 66.5 9.2C98.1 9.2 123.8 34.9 123.8 66.5C123.8 98.1 98.1 123.8 66.5 123.8ZM66.5 9.8C35.3 9.8 9.8 35.2 9.8 66.5C9.8 97.8 35.2 123.2 66.5 123.2C97.8 123.2 123.2 97.8 123.2 66.5C123.2 35.2 97.7 9.8 66.5 9.8Z" fill="white"/>
<path d="M32.7 93.5L32.2 98.7L27 98.1L27.5 92.8L32.7 93.4V93.5Z" fill="white"/>
<path d="M38.9 98C40 98.9 40.5 99.9 40.6 100.9C40.6 102 40.3 103 39.4 104.1C38.5 105.2 37.5 105.8 36.4 105.9C35.3 105.9 34.3 105.6 33.2 104.7L31.1 102.9L36.8 96.3L38.9 98.1V98ZM33.7 104.2C34.6 105 35.5 105.3 36.4 105.2C37.3 105.2 38.2 104.6 39 103.7C39.8 102.8 40.1 101.9 40.1 101C40.1 100.1 39.6 99.3 38.7 98.5L37.1 97.1L32.2 102.8L33.8 104.2H33.7Z" fill="white"/>
<path d="M46.4 103.2C47.2 103.6 47.7 104.2 47.9 104.8C48.1 105.4 48.1 106.1 47.7 106.8C47.3 107.5 46.8 107.9 46.1 108C45.4 108.1 44.7 108 44 107.5L41.8 106.3L39.9 109.6L39.3 109.3L43.6 101.7L46.4 103.3V103.2ZM44.3 107C44.9 107.3 45.5 107.5 45.9 107.4C46.4 107.4 46.8 107 47.1 106.5C47.4 106 47.5 105.5 47.3 105C47.1 104.5 46.7 104.1 46.1 103.8L43.9 102.5L42.1 105.7L44.3 107ZM44.7 107.4L45.1 112.5L44.4 112.1L44.1 107.4H44.8H44.7Z" fill="white"/>
<path d="M56.7 107.4L55 112.7C54.7 113.7 54.1 114.4 53.4 114.8C52.7 115.2 51.8 115.2 50.8 114.8C49.8 114.5 49.1 113.9 48.7 113.2C48.3 112.5 48.3 111.6 48.7 110.6L50.4 105.3L51 105.5L49.3 110.6C49 111.5 49 112.2 49.3 112.8C49.6 113.4 50.2 113.8 51 114.1C51.8 114.4 52.6 114.4 53.1 114.1C53.7 113.8 54.1 113.2 54.4 112.3L56.1 107.2L56.7 107.4Z" fill="white"/>
<path d="M59.3 107.8L58.2 116.5H57.5L58.6 107.7H59.3V107.8ZM65 108.5L60.9 111.8H60.8L58.3 113.9V113C58.4 113 64.1 108.4 64.1 108.4H65V108.5ZM61 111.3L64 117.1H63.2L60.4 111.6L61 111.3Z" fill="white"/>
<path d="M73.3 116.8H72.6L71.3 114.2L67.1 114.4L66.2 117.2H65.5L68.5 108.3H69.3L73.3 116.8ZM67.4 113.8L71.1 113.6L69 109L67.4 113.8Z" fill="white"/>
<path d="M77 107C77.8 106.8 78.6 106.8 79.2 107.1C79.8 107.4 80.2 107.9 80.4 108.7C80.6 109.4 80.4 110.1 80.1 110.6C79.7 111.1 79.1 111.5 78.2 111.7L75.8 112.4L76.7 116.1L76.1 116.3L74 107.8L77.1 107H77ZM78 111.3C78.7 111.1 79.2 110.8 79.5 110.4C79.8 110 79.9 109.5 79.7 108.9C79.6 108.3 79.3 107.9 78.8 107.7C78.4 107.5 77.8 107.5 77.1 107.7L74.6 108.3L75.5 111.9L78 111.3ZM78.5 111.2L82.3 114.7L81.5 114.9L78 111.7L78.5 111.2Z" fill="white"/>
<path d="M87.5 102.9L91.2 110.8L90.5 111.2L83.4 107L82.3 106.3L82.8 107.2L85.8 113.5L85.2 113.8L81.5 105.9L82.3 105.5L89.4 109.7L90.5 110.4L90 109.5L87 103.2L87.6 102.9H87.5Z" fill="white"/>
<path d="M89.9 101.2L94.7 108.5L94.1 108.9L89.3 101.6L89.9 101.2Z" fill="white"/>
<path d="M102.6 102.1L102.1 102.6L99.5 101.3L96.4 104L97.4 106.8L96.9 107.3L93.8 98.4L94.4 97.9L102.8 102.2L102.6 102.1ZM96.1 103.4L98.9 101L94.4 98.6L96.1 103.4Z" fill="white"/>
<path d="M100.1 93.7L105.3 93.1L105.8 98.4L100.6 99L100.1 93.7Z" fill="white"/>
<path d="M30.5 40.6C30 40.3 29.4 40.2 28.9 40.3C28.3 40.4 27.8 40.8 27.4 41.4C27.6 40.8 27.7 40.2 27.4 39.7C27.2 39.2 26.9 38.8 26.4 38.6C25.7 38.2 24.9 38.1 24.3 38.4C23.6 38.7 23 39.3 22.4 40.4L20 44.5L28.5 49.4L31 45.1C31.6 44.1 31.8 43.2 31.7 42.4C31.6 41.7 31.2 41.1 30.4 40.6H30.5ZM25.7 42.7L24.8 44.3L22.9 43.2L23.8 41.6C24.3 40.8 24.8 40.6 25.4 40.9C26 41.3 26.1 41.8 25.6 42.6L25.7 42.7ZM29.3 44.5L28.3 46.3L26.4 45.2L27.4 43.4C27.6 43 27.9 42.7 28.2 42.6C28.5 42.5 28.8 42.6 29.1 42.6C29.4 42.8 29.6 43 29.6 43.3C29.6 43.6 29.6 43.9 29.3 44.3V44.5Z" fill="white"/>
<path d="M31.8 36.1C31.8 35.8 31.7 35.5 31.8 35.3C31.8 35 32 34.8 32.2 34.5C32.3 34.3 32.5 34.2 32.6 34.1C32.7 34 32.8 33.9 32.9 33.9L31.5 32.3C31.5 32.3 31.3 32.3 31.2 32.5C31.1 32.7 31 32.7 30.9 32.8C30.5 33.2 30.3 33.7 30.3 34.2C30.3 34.7 30.4 35.2 30.7 35.7L29.4 34.7L27.9 36.4L33.6 41.3L35.3 39.4L32.5 37C32.2 36.7 32 36.5 31.9 36.2L31.8 36.1Z" fill="white"/>
<path d="M42 31.1C41.7 31.3 41.5 31.3 41.2 31L39.5 28.9C39.1 28.4 38.7 28.1 38.2 28C37.7 27.8 37.2 27.9 36.7 28C36.2 28.2 35.6 28.5 35.1 28.9C34.3 29.6 33.8 30.3 33.6 31C33.4 31.7 33.5 32.4 33.8 33L35.8 32C35.6 31.6 35.5 31.3 35.6 31C35.6 30.7 35.8 30.5 36.1 30.3C36.4 30.1 36.6 30 36.9 30C37.2 30 37.4 30.2 37.7 30.5V30.7C37.8 30.7 36.2 32.8 36.2 32.8C35.8 33.4 35.5 33.9 35.5 34.3C35.5 34.8 35.6 35.2 36 35.6C36.3 35.9 36.6 36.2 37 36.3C37.4 36.4 37.7 36.3 38.1 36.3C38.5 36.2 38.9 36 39.3 35.6C39.6 35.3 39.9 35 40.1 34.6C40.3 34.2 40.4 33.9 40.4 33.5C40.4 33.4 40.4 33.3 40.4 33.2C40.5 33.2 40.6 33.3 40.8 33.4C41.1 33.4 41.4 33.4 41.7 33.4C42 33.4 42.3 33.1 42.6 32.9C42.9 32.6 43.2 32.3 43.3 32L42.5 30.8C42.5 30.9 42.3 31 42.2 31.1H42ZM39 33.4C39 33.5 38.8 33.7 38.7 33.8C38.5 33.9 38.4 34 38.2 34C38 34 37.8 34 37.7 33.8C37.6 33.6 37.5 33.4 37.5 33.3C37.5 33.1 37.7 32.9 37.8 32.7L38.6 31.7L38.9 32C39 32.2 39.1 32.3 39.2 32.5C39.2 32.7 39.2 32.8 39.2 33C39.2 33.2 39.2 33.3 39 33.4Z" fill="white"/>
<path d="M46.7 26.9C46.7 27.1 46.8 27.4 46.8 27.6C46.8 27.8 46.8 28 46.6 28.2C46.6 28.4 46.3 28.5 46.1 28.6C45.8 28.7 45.6 28.8 45.3 28.8C45 28.8 44.8 28.7 44.5 28.5C44.3 28.3 44 28 43.8 27.5C43.6 27.1 43.4 26.7 43.4 26.4C43.4 26.1 43.4 25.8 43.4 25.6C43.5 25.4 43.7 25.2 44 25C44.3 24.8 44.6 24.8 44.9 24.9C45.2 24.9 45.4 25.2 45.7 25.6L47.4 23.8C47.1 23.5 46.8 23.2 46.4 23.1C46 22.9 45.5 22.9 45 22.9C44.5 22.9 43.9 23.2 43.2 23.5C42.5 23.9 42 24.3 41.6 24.9C41.2 25.4 41 26.1 41 26.7C41 27.4 41.2 28.1 41.6 28.8C42 29.5 42.5 30 43 30.4C43.6 30.8 44.2 30.9 44.9 30.9C45.6 30.9 46.3 30.7 47 30.3C47.6 30 48 29.6 48.4 29.2C48.7 28.8 49 28.4 49.1 27.9C49.2 27.5 49.1 27 49.1 26.6L46.7 27.1V26.9Z" fill="white"/>
<path d="M48.1 19.9C48.4 20 48.8 19.9 49.3 19.8C49.8 19.6 50.1 19.4 50.2 19.1C50.4 18.8 50.4 18.5 50.2 18.1C50.1 17.7 49.8 17.4 49.5 17.4C49.2 17.4 48.8 17.4 48.4 17.5C47.9 17.7 47.6 17.9 47.4 18.2C47.2 18.5 47.2 18.8 47.4 19.2C47.5 19.6 47.8 19.8 48 19.9H48.1Z" fill="white"/>
<path d="M50.7415 20.1576L48.3968 21.0249L50.9988 28.0591L53.3435 27.1918L50.7415 20.1576Z" fill="white"/>
<path d="M61.4 23.7C61.1 23.7 60.8 23.7 60.8 23.2L60.2 20.5C60.1 19.9 59.8 19.4 59.5 19.1C59.1 18.7 58.7 18.5 58.2 18.4C57.7 18.3 57 18.4 56.3 18.4C55.2 18.6 54.5 19 54 19.5C53.5 20 53.3 20.7 53.3 21.4H55.5C55.5 21 55.6 20.7 55.8 20.5C56 20.3 56.3 20.2 56.6 20.1C56.9 20.1 57.2 20.1 57.4 20.2C57.6 20.4 57.8 20.6 57.9 21V21.2L55.5 22.2C54.8 22.5 54.4 22.8 54.2 23.2C54 23.6 53.9 24.1 54 24.6C54 25 54.3 25.4 54.5 25.6C54.8 25.9 55.1 26 55.5 26.1C55.9 26.1 56.4 26.1 56.8 26.1C57.2 26.1 57.6 25.9 58 25.6C58.4 25.4 58.6 25.1 58.8 24.8C58.8 24.7 58.8 24.6 58.9 24.5C58.9 24.6 59 24.7 59.1 24.8C59.3 25 59.6 25.2 59.9 25.2C60.2 25.2 60.6 25.2 60.9 25.2C61.3 25.2 61.7 25 61.9 24.8V23.4C61.7 23.4 61.5 23.5 61.3 23.5L61.4 23.7ZM58.2 23.7C58.2 23.9 58.1 24 58 24.1C58 24.2 57.8 24.3 57.6 24.4C57.5 24.4 57.3 24.5 57.1 24.6C56.9 24.6 56.7 24.6 56.5 24.6C56.3 24.6 56.2 24.4 56.2 24.2C56.2 24 56.2 23.8 56.3 23.7C56.4 23.6 56.6 23.4 56.9 23.3L58 22.8V23.2C58.1 23.4 58.1 23.6 58 23.8L58.2 23.7Z" fill="white"/>
<path d="M72.2 15.5L67.5 15L66.5 24.8L69 25L69.3 21.4H70.8C70.8 21.5 72.5 25.3 72.5 25.3L75.3 25.6L73.1 21.4C73.5 21.4 73.9 21.2 74.2 21C74.9 20.5 75.3 19.8 75.4 18.8C75.4 17.9 75.2 17.1 74.6 16.5C74 15.9 73.1 15.5 72 15.4L72.2 15.5ZM69.8 17.3L71.6 17.5C72.1 17.5 72.5 17.7 72.7 17.9C72.9 18.1 73 18.4 73 18.9C73 19.3 72.8 19.6 72.5 19.8C72.2 20 71.9 20 71.4 20L69.6 19.8L69.8 17.3Z" fill="white"/>
<path d="M82.9 20.4L81.6 24.2C81.6 24.5 81.4 24.7 81.3 24.9C81.2 25.1 81 25.2 80.9 25.3C80.7 25.3 80.6 25.4 80.4 25.5C80.2 25.5 80.1 25.5 79.9 25.5C79.6 25.4 79.3 25.2 79.2 25C79.1 24.8 79.1 24.4 79.2 24L80.6 19.8L78.2 19L76.6 23.7C76.4 24.3 76.3 24.8 76.4 25.2C76.4 25.6 76.7 26 77 26.3C77.3 26.6 77.7 26.8 78.2 27C78.8 27.2 79.3 27.2 79.8 27.1C80.3 27 80.7 26.7 81.1 26.3L80.7 27.7L82.9 28.4L85.2 21.3L82.8 20.5L82.9 20.4Z" fill="white"/>
<path d="M91.2 30.1C91.5 29.6 91.5 29.2 91.4 28.7C91.3 28.2 90.9 27.7 90.3 27.2L89.3 26.3C89 26.1 88.9 25.9 88.8 25.7C88.8 25.6 88.8 25.4 88.8 25.3C88.8 25.3 88.9 25.1 89 25.1C89.1 25.1 89.2 25.1 89.4 25.1C89.6 25.1 89.7 25.2 89.9 25.3C90.2 25.5 90.5 25.8 90.8 26.1C91 26.4 91.2 26.8 91.3 27.2L93 26.6C93 26.1 92.7 25.6 92.3 25.1C91.9 24.6 91.4 24.2 90.7 23.8C90 23.4 89.4 23.2 88.8 23.1C88.2 23 87.7 23.1 87.3 23.3C86.9 23.5 86.6 23.8 86.4 24.1C86.1 24.6 86 25.2 86.2 25.7C86.4 26.2 86.8 26.8 87.5 27.4L88.3 28.1C88.5 28.3 88.7 28.5 88.7 28.6C88.7 28.7 88.7 28.8 88.7 29C88.7 29.2 88.4 29.2 88.2 29.2C88 29.2 87.7 29.1 87.5 28.9C87.1 28.7 86.7 28.3 86.5 27.9C86.3 27.5 86.1 27.1 86 26.7L84.3 27.3C84.4 27.9 84.7 28.5 85.2 29C85.6 29.5 86.2 30 86.8 30.3C87.5 30.7 88.1 30.9 88.7 31C89.3 31 89.7 31 90.2 30.8C90.6 30.6 90.9 30.3 91.2 29.9V30.1Z" fill="white"/>
<path d="M100.3 32.5C100.3 32.1 100.3 31.6 100.2 31.2C100 30.8 99.8 30.4 99.4 30.1C99 29.8 98.7 29.6 98.2 29.5C97.8 29.4 97.4 29.4 96.9 29.5C96.7 29.5 96.5 29.6 96.3 29.7L97.2 28.5L95.5 27L90.6 32.6L92.5 34.3L95.1 31.3C95.4 31 95.6 30.8 95.9 30.7C96.2 30.6 96.4 30.6 96.6 30.7C96.8 30.7 97 30.9 97.2 31C97.4 31.2 97.6 31.4 97.6 31.7C97.6 32 97.5 32.3 97.1 32.7L94.3 36L96.2 37.7L99.4 33.9C99.8 33.5 100 33 100.1 32.6L100.3 32.5Z" fill="white"/>
<path d="M102.8 43.3C102.6 43 102.6 42.8 102.9 42.5L105.1 40.8C105.6 40.4 105.9 40 106.1 39.5C106.3 39 106.3 38.5 106.1 38C106 37.5 105.7 36.9 105.2 36.3C104.5 35.4 103.9 34.9 103.2 34.7C102.5 34.5 101.8 34.5 101.2 34.9L102.1 36.9C102.5 36.7 102.8 36.7 103.1 36.8C103.4 36.8 103.6 37.1 103.8 37.3C104 37.6 104.1 37.8 104 38.1C104 38.4 103.8 38.6 103.5 38.8H103.3C103.3 38.9 101.3 37.2 101.3 37.2C100.8 36.7 100.3 36.5 99.8 36.4C99.3 36.4 98.9 36.5 98.4 36.8C98 37.1 97.8 37.4 97.7 37.7C97.6 38 97.6 38.4 97.7 38.8C97.8 39.2 98 39.6 98.3 40C98.6 40.3 98.9 40.6 99.2 40.9C99.6 41.1 99.9 41.3 100.3 41.3C100.4 41.3 100.5 41.3 100.7 41.3C100.7 41.4 100.5 41.5 100.5 41.7C100.5 42 100.4 42.3 100.5 42.6C100.5 42.9 100.7 43.2 101 43.5C101.3 43.8 101.5 44.1 101.8 44.2L103 43.4C103 43.4 102.8 43.2 102.7 43.1L102.8 43.3ZM101.4 40.4C101.2 40.4 101.1 40.4 100.9 40.4C100.7 40.4 100.6 40.4 100.5 40.2C100.4 40.2 100.2 40 100.1 39.9C100 39.7 99.9 39.5 99.9 39.4C99.9 39.2 99.9 39 100.1 38.9C100.3 38.8 100.5 38.7 100.6 38.8C100.8 38.8 101 39 101.2 39.2L102.1 40L101.8 40.3C101.6 40.4 101.5 40.5 101.3 40.6L101.4 40.4Z" fill="white"/>
<path d="M111.2 46.6L107.1 45.4L112.8 42.6L111.7 40.4L102.1 45L103.2 47.3L104.8 46.5L106.5 47L104.5 50L105.8 52.5L108.6 47.9L112.4 49.1L111.2 46.6Z" fill="white"/>
<path d="M66.5 103.3C46.2 103.3 29.7 86.8 29.7 66.5C29.7 46.2 46.2 29.7 66.5 29.7C86.8 29.7 103.3 46.2 103.3 66.5C103.3 86.8 86.8 103.3 66.5 103.3ZM66.5 30.3C46.5 30.3 30.3 46.6 30.3 66.5C30.3 86.4 46.6 102.7 66.5 102.7C86.4 102.7 102.7 86.4 102.7 66.5C102.7 46.6 86.4 30.3 66.5 30.3Z" fill="white"/>
<path d="M82.5 69.3C83.7 68.9 84.7 68.4 85.6 67.7C87.5 66.1 88.5 63.8 88.5 60.8C88.5 57.8 87.5 55.9 85.6 54.2C83.6 52.5 80.9 51.7 77.4 51.7H54.2C50.6 51.7 47.9 52.4 46.2 53.8C44.5 55.2 43.6 57.1 43.6 59.7C43.6 61.4 44.1 62.8 45.1 64C46.1 65.2 47.6 66 49.6 66.3C47.3 66.6 45.6 67.4 44.5 68.7C43.4 70 42.8 71.5 42.8 73.3C42.8 75.8 43.7 77.8 45.5 79.2C47.3 80.6 50 81.3 53.5 81.3H63.2H68.5H70.8V70.5H75.4L81.7 81.3H90.2L82.5 69.4V69.3ZM61.1 75.8H54.8C53.4 75.8 52.4 75.5 51.7 75C51 74.4 50.7 73.6 50.7 72.5C50.7 71.4 51 70.7 51.7 70.1C52.4 69.5 53.4 69.3 54.8 69.3H61.1V75.8ZM61.1 63.8H55.5C52.8 63.8 51.4 62.7 51.4 60.6C51.4 58.5 52.8 57.4 55.5 57.4H61.1V63.8ZM79.6 64.1C78.9 64.7 77.7 65 76.2 65H70.7V57.5H76.2C77.7 57.5 78.8 57.8 79.6 58.4C80.3 59 80.7 59.9 80.7 61.2C80.7 62.5 80.3 63.5 79.6 64.1Z" fill="white"/>
</svg>
