<svg width="133" height="133" viewBox="0 0 133 133" fill="none" xmlns="http://www.w3.org/2000/svg">
<path d="M66.4 123.5C34.8 123.5 9.10001 97.8 9.10001 66.2C9.10001 34.6 34.8 9 66.4 9C98 9 123.7 34.7 123.7 66.3C123.7 97.9 98 123.6 66.4 123.6V123.5ZM66.4 9.6C35.2 9.6 9.70001 35 9.70001 66.3C9.70001 97.6 35.1 123 66.4 123C97.7 123 123.1 97.6 123.1 66.3C123.1 35 97.6 9.6 66.4 9.6Z" fill="white"/>
<path d="M66.4 103.1C46.1 103.1 29.6 86.6 29.6 66.3C29.6 46 46.1 29.5 66.4 29.5C86.7 29.5 103.2 46 103.2 66.3C103.2 86.6 86.7 103.1 66.4 103.1ZM66.4 30C46.4 30 30.2 46.3 30.2 66.2C30.2 86.1 46.5 102.4 66.4 102.4C86.3 102.4 102.6 86.1 102.6 66.2C102.6 46.3 86.3 30 66.4 30Z" fill="white"/>
<path d="M82.4 69.1C83.6 68.7 84.6 68.2 85.5 67.5C87.4 65.9 88.4 63.6 88.4 60.6C88.4 57.6 87.4 55.7 85.5 54C83.5 52.3 80.8 51.5 77.3 51.5H54.1C50.5 51.5 47.8 52.2 46.1 53.6C44.4 55 43.5 56.9 43.5 59.5C43.5 61.2 44 62.6 45 63.8C46 65 47.5 65.8 49.5 66.1C47.2 66.4 45.5 67.2 44.4 68.5C43.3 69.8 42.7 71.3 42.7 73.1C42.7 75.6 43.6 77.6 45.4 79C47.2 80.4 49.9 81.1 53.4 81.1H63.1H68.4H70.7V70.3H75.3L81.6 81.1H90.1L82.4 69.2V69.1ZM61 75.6H54.7C53.3 75.6 52.3 75.3 51.6 74.8C50.9 74.2 50.6 73.4 50.6 72.3C50.6 71.2 50.9 70.5 51.6 69.9C52.3 69.3 53.3 69.1 54.7 69.1H61V75.6ZM61 63.6H55.4C52.7 63.6 51.3 62.5 51.3 60.4C51.3 58.3 52.7 57.2 55.4 57.2H61V63.6ZM79.5 63.9C78.8 64.5 77.6 64.8 76.1 64.8H70.6V57.3H76.1C77.6 57.3 78.7 57.6 79.5 58.2C80.2 58.8 80.6 59.7 80.6 61C80.6 62.3 80.2 63.3 79.5 63.9Z" fill="white"/>
</svg>
