<svg width="133" height="133" viewBox="0 0 133 133" fill="none" xmlns="http://www.w3.org/2000/svg">
<path d="M32.6 93.3L32.1 98.5L26.9 97.9L27.4 92.6L32.6 93.2V93.3Z" fill="#212121"/>
<path d="M38.8 97.8C39.9 98.7 40.4 99.7 40.5 100.7C40.5 101.8 40.2 102.8 39.3 103.9C38.4 105 37.4 105.6 36.3 105.7C35.2 105.7 34.2 105.4 33.1 104.5L31 102.7L36.7 96.1L38.8 97.9V97.8ZM33.6 104C34.5 104.8 35.4 105.1 36.3 105C37.2 105 38.1 104.4 38.9 103.5C39.7 102.6 40 101.7 40 100.8C40 99.9 39.5 99.1 38.6 98.3L37 96.9L32.1 102.6L33.7 104H33.6Z" fill="#212121"/>
<path d="M46.3 103C47.1 103.4 47.6 104 47.8 104.6C48 105.2 48 105.9 47.6 106.6C47.2 107.3 46.7 107.7 46 107.8C45.3 107.9 44.6 107.8 43.9 107.3L41.7 106.1L39.8 109.4L39.2 109.1L43.5 101.5L46.3 103.1V103ZM44.2 106.8C44.8 107.1 45.4 107.3 45.8 107.2C46.3 107.2 46.7 106.8 47 106.3C47.3 105.8 47.4 105.3 47.2 104.8C47 104.3 46.6 103.9 46 103.6L43.8 102.3L42 105.5L44.2 106.8ZM44.6 107.1L45 112.2L44.3 111.8L44 107.1H44.7H44.6Z" fill="#212121"/>
<path d="M56.6 107.1L54.9 112.4C54.6 113.4 54 114.1 53.3 114.5C52.6 114.9 51.7 114.9 50.7 114.5C49.7 114.2 49 113.6 48.6 112.9C48.2 112.2 48.2 111.3 48.6 110.3L50.3 105L50.9 105.2L49.2 110.3C48.9 111.2 48.9 111.9 49.2 112.5C49.5 113.1 50.1 113.5 50.9 113.8C51.7 114.1 52.5 114.1 53 113.8C53.6 113.5 54 112.9 54.3 112L56 106.9L56.6 107.1Z" fill="#212121"/>
<path d="M59.2 107.6L58.1 116.3H57.4L58.5 107.5H59.2V107.6ZM64.9 108.3L60.8 111.6H60.7L58.2 113.7V112.8C58.3 112.8 64 108.2 64 108.2H64.9V108.3ZM60.9 111.1L63.9 116.9H63.1L60.3 111.4L60.9 111.1Z" fill="#212121"/>
<path d="M73.2 116.6H72.5L71.2 114L67 114.2L66.1 117H65.4L68.4 108.1H69.2L73.2 116.6ZM67.3 113.6L71 113.4L68.9 108.8L67.3 113.6Z" fill="#212121"/>
<path d="M76.9 106.8C77.7 106.6 78.5 106.6 79.1 106.9C79.7 107.2 80.1 107.7 80.3 108.5C80.5 109.2 80.3 109.9 80 110.4C79.6 110.9 79 111.3 78.1 111.5L75.7 112.2L76.6 115.9L76 116.1L73.9 107.6L77 106.8H76.9ZM77.9 111C78.6 110.8 79.1 110.5 79.4 110.1C79.7 109.7 79.8 109.2 79.6 108.6C79.5 108 79.2 107.6 78.7 107.4C78.3 107.2 77.7 107.2 77 107.4L74.5 108L75.4 111.6L77.9 111ZM78.4 111L82.2 114.5L81.4 114.7L77.9 111.5L78.4 111Z" fill="#212121"/>
<path d="M87.4 102.7L91.1 110.6L90.4 111L83.3 106.8L82.2 106.1L82.7 107L85.7 113.3L85.1 113.6L81.4 105.7L82.2 105.3L89.3 109.5L90.4 110.2L89.9 109.3L86.9 103L87.5 102.7H87.4Z" fill="#212121"/>
<path d="M89.8 101L94.6 108.3L94 108.7L89.2 101.4L89.8 101Z" fill="#212121"/>
<path d="M102.5 101.9L102 102.4L99.4 101.1L96.3 103.8L97.3 106.6L96.8 107.1L93.7 98.2L94.3 97.7L102.7 102L102.5 101.9ZM96 103.1L98.8 100.7L94.3 98.3L96 103.1Z" fill="#212121"/>
<path d="M100 93.5L105.2 92.9L105.7 98.2L100.5 98.8L100 93.5Z" fill="#212121"/>
<path d="M30.4 40.4C29.9 40.1 29.3 40 28.8 40.1C28.2 40.2 27.7 40.6 27.3 41.2C27.5 40.6 27.6 40 27.3 39.5C27.1 39 26.8 38.6 26.3 38.4C25.6 38 24.8 37.9 24.2 38.2C23.5 38.5 22.9 39.1 22.3 40.2L19.9 44.3L28.4 49.2L30.9 44.9C31.5 43.9 31.7 43 31.6 42.2C31.5 41.5 31.1 40.9 30.3 40.4H30.4ZM25.6 42.5L24.7 44.1L22.8 43L23.7 41.4C24.2 40.6 24.7 40.4 25.3 40.7C25.9 41.1 26 41.6 25.5 42.4L25.6 42.5ZM29.2 44.3L28.2 46.1L26.3 45L27.3 43.2C27.5 42.8 27.8 42.5 28.1 42.4C28.4 42.3 28.7 42.4 29 42.4C29.3 42.6 29.5 42.8 29.5 43.1C29.5 43.4 29.5 43.7 29.2 44.1V44.3Z" fill="#212121"/>
<path d="M31.7 35.9C31.7 35.6 31.6 35.3 31.7 35.1C31.7 34.8 31.9 34.6 32.1 34.3C32.2 34.1 32.4 34 32.5 33.9C32.6 33.8 32.7 33.7 32.8 33.7L31.4 32.1C31.4 32.1 31.2 32.1 31.1 32.3C31 32.3 30.9 32.5 30.8 32.6C30.4 33 30.2 33.5 30.2 34C30.2 34.5 30.3 35 30.6 35.5L29.3 34.5L27.8 36.2L33.5 41.1L35.2 39.2L32.4 36.8C32.1 36.5 31.9 36.3 31.8 36L31.7 35.9Z" fill="#212121"/>
<path d="M41.9 30.8C41.6 31 41.4 31 41.1 30.7L39.4 28.6C39 28.1 38.6 27.8 38.1 27.7C37.6 27.5 37.1 27.6 36.6 27.7C36.1 27.9 35.5 28.2 35 28.6C34.2 29.3 33.7 30 33.5 30.7C33.3 31.4 33.4 32.1 33.7 32.7L35.7 31.7C35.5 31.3 35.4 31 35.5 30.7C35.5 30.4 35.7 30.2 36 30C36.3 29.8 36.5 29.7 36.8 29.7C37.1 29.7 37.3 29.9 37.6 30.2V30.4C37.7 30.4 36.1 32.5 36.1 32.5C35.7 33.1 35.4 33.6 35.4 34C35.4 34.5 35.5 34.9 35.9 35.3C36.2 35.6 36.5 35.9 36.9 36C37.3 36.1 37.6 36 38 36C38.4 35.9 38.8 35.7 39.2 35.3C39.5 35 39.8 34.7 40 34.3C40.2 33.9 40.3 33.6 40.3 33.2C40.3 33.1 40.3 33 40.3 32.9C40.4 32.9 40.5 33 40.7 33.1C41 33.1 41.3 33.1 41.6 33.1C41.9 33.1 42.2 32.8 42.5 32.6C42.8 32.3 43.1 32 43.2 31.7L42.4 30.5C42.4 30.6 42.2 30.7 42.1 30.8H41.9ZM38.9 33.2C38.9 33.3 38.7 33.5 38.6 33.6C38.4 33.7 38.3 33.8 38.1 33.8C37.9 33.8 37.7 33.8 37.6 33.6C37.5 33.4 37.4 33.2 37.4 33.1C37.4 32.9 37.6 32.7 37.7 32.5L38.5 31.5L38.8 31.8C38.9 32 39 32.1 39.1 32.3C39.1 32.5 39.1 32.6 39.1 32.8C39.1 33 39.1 33.1 38.9 33.2Z" fill="#212121"/>
<path d="M46.6 26.6C46.6 26.8 46.7 27.1 46.7 27.3C46.7 27.5 46.7 27.7 46.5 27.9C46.5 28.1 46.2 28.2 46 28.3C45.7 28.4 45.5 28.5 45.2 28.5C44.9 28.5 44.7 28.4 44.4 28.2C44.2 28 43.9 27.7 43.7 27.2C43.5 26.8 43.3 26.4 43.3 26.1C43.3 25.8 43.3 25.5 43.3 25.3C43.4 25.1 43.6 24.9 43.9 24.7C44.2 24.5 44.5 24.5 44.8 24.6C45.1 24.6 45.3 24.9 45.6 25.3L47.3 23.5C47 23.2 46.7 22.9 46.3 22.8C45.9 22.6 45.4 22.6 44.9 22.6C44.4 22.6 43.8 22.9 43.1 23.2C42.4 23.6 41.9 24 41.5 24.6C41.1 25.1 40.9 25.8 40.9 26.4C40.9 27.1 41.1 27.8 41.5 28.5C41.9 29.2 42.4 29.7 42.9 30.1C43.5 30.5 44.1 30.6 44.8 30.6C45.5 30.6 46.2 30.4 46.9 30C47.5 29.7 47.9 29.3 48.3 28.9C48.6 28.5 48.9 28.1 49 27.6C49.1 27.2 49 26.7 49 26.3L46.6 26.8V26.6Z" fill="#212121"/>
<path d="M48 19.7C48.3 19.8 48.7 19.7 49.2 19.6C49.7 19.4 50 19.2 50.1 18.9C50.3 18.6 50.3 18.3 50.1 17.9C50 17.5 49.7 17.2 49.4 17.2C49.1 17.2 48.7 17.2 48.3 17.3C47.8 17.5 47.5 17.7 47.3 18C47.1 18.3 47.1 18.6 47.3 19C47.4 19.4 47.7 19.6 47.9 19.7H48Z" fill="#212121"/>
<path d="M50.6783 20.0047L48.3336 20.872L50.9356 27.9062L53.2803 27.0389L50.6783 20.0047Z" fill="#212121"/>
<path d="M61.3 23.5C61 23.5 60.7 23.5 60.7 23L60.1 20.3C60 19.7 59.7 19.2 59.4 18.9C59 18.5 58.6 18.3 58.1 18.2C57.6 18.1 56.9 18.2 56.2 18.2C55.1 18.4 54.4 18.8 53.9 19.3C53.4 19.8 53.2 20.5 53.2 21.2H55.4C55.4 20.8 55.5 20.5 55.7 20.3C55.9 20.1 56.2 20 56.5 19.9C56.8 19.9 57.1 19.9 57.3 20C57.5 20.2 57.7 20.4 57.8 20.8V21L55.4 22C54.7 22.3 54.3 22.6 54.1 23C53.9 23.4 53.8 23.9 53.9 24.4C53.9 24.8 54.2 25.2 54.4 25.4C54.7 25.7 55 25.8 55.4 25.9C55.8 25.9 56.3 25.9 56.7 25.9C57.1 25.9 57.5 25.7 57.9 25.4C58.3 25.2 58.5 24.9 58.7 24.6C58.7 24.5 58.7 24.4 58.8 24.3C58.8 24.4 58.9 24.5 59 24.6C59.2 24.8 59.5 25 59.8 25C60.1 25 60.5 25 60.8 25C61.2 25 61.6 24.8 61.8 24.6V23.2C61.6 23.2 61.4 23.3 61.2 23.3L61.3 23.5ZM58.1 23.4C58.1 23.6 58 23.7 57.9 23.8C57.9 23.9 57.7 24 57.5 24.1C57.4 24.1 57.2 24.2 57 24.3C56.8 24.3 56.6 24.3 56.4 24.3C56.2 24.3 56.1 24.1 56.1 23.9C56.1 23.7 56.1 23.5 56.2 23.4C56.3 23.3 56.5 23.1 56.8 23L57.9 22.5V22.9C58 23.1 58 23.3 57.9 23.5L58.1 23.4Z" fill="#212121"/>
<path d="M72.1 15.3L67.4 14.8L66.4 24.6L68.9 24.8L69.2 21.2H70.7C70.7 21.3 72.4 25.1 72.4 25.1L75.2 25.4L73 21.2C73.4 21.2 73.8 21 74.1 20.8C74.8 20.3 75.2 19.6 75.3 18.6C75.3 17.7 75.1 16.9 74.5 16.3C73.9 15.7 73 15.3 71.9 15.2L72.1 15.3ZM69.7 17L71.5 17.2C72 17.2 72.4 17.4 72.6 17.6C72.8 17.8 72.9 18.1 72.9 18.6C72.9 19 72.7 19.3 72.4 19.5C72.1 19.7 71.8 19.7 71.3 19.7L69.5 19.5L69.7 17Z" fill="#212121"/>
<path d="M82.9 20.2L81.6 24C81.6 24.3 81.4 24.5 81.3 24.7C81.2 24.9 81 25 80.9 25.1C80.7 25.1 80.6 25.2 80.4 25.3C80.2 25.3 80.1 25.3 79.9 25.3C79.6 25.2 79.3 25 79.2 24.8C79.1 24.6 79.1 24.2 79.2 23.8L80.6 19.6L78.2 18.8L76.6 23.5C76.4 24.1 76.3 24.6 76.4 25C76.4 25.4 76.7 25.8 77 26.1C77.3 26.4 77.7 26.6 78.2 26.8C78.8 27 79.3 27 79.8 26.9C80.3 26.8 80.7 26.5 81.1 26.1L80.7 27.5L82.9 28.2L85.2 21.1L82.8 20.3L82.9 20.2Z" fill="#212121"/>
<path d="M91.1 29.9C91.4 29.4 91.4 29 91.3 28.5C91.2 28 90.8 27.5 90.2 27L89.2 26.1C88.9 25.9 88.8 25.7 88.7 25.5C88.7 25.4 88.7 25.2 88.7 25.1C88.7 25.1 88.8 24.9 88.9 24.9C89 24.9 89.1 24.9 89.3 24.9C89.5 24.9 89.6 25 89.8 25.1C90.1 25.3 90.4 25.6 90.7 25.9C90.9 26.2 91.1 26.6 91.2 27L92.9 26.4C92.9 25.9 92.6 25.4 92.2 24.9C91.8 24.4 91.3 24 90.6 23.6C89.9 23.2 89.3 23 88.7 22.9C88.1 22.8 87.6 22.9 87.2 23.1C86.8 23.3 86.5 23.6 86.3 23.9C86 24.4 85.9 25 86.1 25.5C86.3 26 86.7 26.6 87.4 27.2L88.2 27.9C88.4 28.1 88.6 28.3 88.6 28.4C88.6 28.5 88.6 28.6 88.6 28.8C88.6 29 88.3 29 88.1 29C87.9 29 87.6 28.9 87.4 28.7C87 28.5 86.6 28.1 86.4 27.7C86.2 27.3 86 26.9 85.9 26.5L84.2 27.1C84.3 27.7 84.6 28.3 85.1 28.8C85.5 29.3 86.1 29.8 86.7 30.1C87.4 30.5 88 30.7 88.6 30.8C89.2 30.8 89.6 30.8 90.1 30.6C90.5 30.4 90.8 30.1 91.1 29.7V29.9Z" fill="#212121"/>
<path d="M100.2 32.2C100.2 31.8 100.2 31.3 100.1 30.9C99.9 30.5 99.7 30.1 99.3 29.8C98.9 29.5 98.6 29.3 98.1 29.2C97.7 29.1 97.3 29.1 96.8 29.2C96.6 29.2 96.4 29.3 96.2 29.4L97.1 28.2L95.4 26.7L90.5 32.3L92.4 34L95 31C95.3 30.7 95.5 30.5 95.8 30.4C96.1 30.3 96.3 30.3 96.5 30.4C96.7 30.4 96.9 30.6 97.1 30.7C97.3 30.9 97.5 31.1 97.5 31.4C97.5 31.7 97.4 32 97 32.4L94.2 35.7L96.1 37.4L99.3 33.6C99.7 33.2 99.9 32.7 100 32.3L100.2 32.2Z" fill="#212121"/>
<path d="M102.7 43.1C102.5 42.8 102.5 42.6 102.8 42.3L105 40.6C105.5 40.2 105.8 39.8 106 39.3C106.2 38.8 106.2 38.3 106 37.8C105.9 37.3 105.6 36.7 105.1 36.1C104.4 35.2 103.8 34.7 103.1 34.5C102.4 34.3 101.7 34.3 101.1 34.7L102 36.7C102.4 36.5 102.7 36.5 103 36.6C103.3 36.6 103.5 36.9 103.7 37.1C103.9 37.4 104 37.6 103.9 37.9C103.9 38.2 103.7 38.4 103.4 38.6H103.2C103.2 38.7 101.2 37 101.2 37C100.7 36.5 100.2 36.3 99.7 36.2C99.2 36.2 98.8 36.3 98.3 36.6C97.9 36.9 97.7 37.2 97.6 37.5C97.5 37.8 97.5 38.2 97.6 38.6C97.7 39 97.9 39.4 98.2 39.8C98.5 40.1 98.8 40.4 99.1 40.7C99.5 40.9 99.8 41.1 100.2 41.1C100.3 41.1 100.4 41.1 100.6 41.1C100.6 41.2 100.4 41.3 100.4 41.5C100.4 41.8 100.3 42.1 100.4 42.4C100.4 42.7 100.6 43 100.9 43.3C101.2 43.6 101.4 43.9 101.7 44L102.9 43.2C102.9 43.2 102.7 43 102.6 42.9L102.7 43.1ZM101.3 40.1C101.1 40.1 101 40.1 100.8 40.1C100.6 40.1 100.5 40.1 100.4 39.9C100.3 39.9 100.1 39.7 100 39.6C99.9 39.4 99.8 39.2 99.8 39.1C99.8 38.9 99.8 38.7 100 38.6C100.2 38.5 100.4 38.4 100.5 38.5C100.7 38.5 100.9 38.7 101.1 38.9L102 39.7L101.7 40C101.5 40.1 101.4 40.2 101.2 40.3L101.3 40.1Z" fill="#212121"/>
<path d="M111.1 46.3L107 45.2L112.7 42.4L111.6 40.1L102 44.8L103.1 47.1L104.7 46.3L106.4 46.8L104.5 49.8L105.7 52.3L108.5 47.7L112.3 48.9L111.1 46.3Z" fill="#212121"/>
</svg>
